<svg height="64" preserveAspectRatio="none" viewBox="0 0 64 64" width="64" xmlns="http://www.w3.org/2000/svg"><path d="m9.3125 12.4189453s-2.0581055-8.0166016-.5717773-8.3505859c1.4858398-.3344727 4.6875 1.3354492 4.6875 1.3354492s-.7998047-3.5068359 1.4863281-1.6699219c2.2871094 1.8374023 2.7441406 5.8457031 2.7441406 5.8457031l.3422852 3.6738281c0 .0000001-4.4580078-3.0058593-8.6884766-.8344726z" fill="#c10d23"/><path d="m19.1396484 15.1738281-1.6713867-1.1269531c-.0400391-.0268555-2.2290039-1.4599609-4.8276367-1.4599609-1.0371094 0-2.0097656.2294922-2.8920898.6821289l-1.0644532.5463867-.2973632-1.1591797c-.5488281-2.1386719-1.7226563-7.2832031-.7646484-8.8481445.274414-.4482422.645996-.612793.9091796-.6723633 1.0307617-.2329102 2.637207.2441406 3.824707.7270508.0429688-.4023438.15625-.7910156.3920898-1.0864258.2729492-.3417969.6660156-.5302734 1.1069336-.5302734.5004883 0 1.0273438.2363281 1.6582031.7426758 2.5634766 2.0595703 3.074707 6.3027344 3.0952148 6.4824219zm-6.4990234-4.4980468c1.6743164 0 3.1767578.4658203 4.246582.9223633l-.1796875-1.9296876c-.0024414-.015625-.4443359-3.625-2.3916016-5.1894531-.0209961-.0170898-.0415039-.0332031-.0615234-.0488281.0141602.2421875.0507813.5224609.1054688.7617188l.4589844 2.0136719-1.8320313-.9541016c-.6777344-.3525391-2.6743164-1.2661133-3.7905273-1.2719727-.1801758.8364258.1474609 3.3867187.7788086 6.1245117.8442382-.284668 1.7363281-.4282226 2.6655273-.4282226z" fill="#330e03"/><path d="m33.0927734 57.3310547 2.0576172-2.2275391-7.659668-7.5537109-2.2861328.7441406 5.3730469 6.6855469-2.4003906 3.3417969c-3.315918-.9902344-9.2612305 2.4765625-9.2612305 2.4765625h10.9760742l1.8588867-2.0126953 3.0566406.4033203z" fill="#f09400"/><path d="m30.3100586 61.7539063h-14.9291992l3.0537109-1.78125c.1953125-.1132813 4.8164063-2.7851563 8.3930664-2.7851563.328125 0 .6420898.0224609.9389648.0673828l1.6113281-2.2421875-5.7856444-7.2001953 4.1557617-1.3505859 8.7314453 8.6103516-2.0859375 2.2587891 2.9082031 3.1503906-5.1845703-.6835938zm-7.0302734-1.9111329h6.1943359l1.9106445-2.0703125.9287109.1240234-.5209961-.5654297 2.027832-2.1972656-6.5864258-6.4960938-.4174805.1367188 4.9614258 6.1728516-3.2216797 4.484375-.6523438-.1943359c-.3066406-.0917969-.668457-.1386719-1.0761719-.1386719-1.104492 0-2.3740232.3271485-3.5478513.7441406z" fill="#330e03"/><path d="m10.2802734 18.4536133 2.5151367 2.6005859s-.2514648 9.9047852-2.2636719 11.5141602c0 0-3.7724609 7.8007813-5.2817383 3.8378906-1.5092773-3.9609375 3.0185547-9.9047852 3.0185547-9.9047852s-3.0185546-4.4565429 2.0117188-8.0478515z" fill="#c10d23"/><path d="m6.3955078 38.484375c-.6279297 0-1.4912109-.3007813-2.0385742-1.7382813-1.4165039-3.7167969 1.6582031-8.6806641 2.7739258-10.2983398-1.0390625-2.0361328-1.5429688-5.8183594 2.5942383-8.7719727l.6699219-.4780273 3.3657227 3.4799805-.0102539.4008789c-.0595703 2.3583984-.4121094 10.03125-2.4394531 12.0708008-.8530275 1.7314453-2.8745119 5.3349609-4.9155275 5.3349609zm3.796875-18.7470703c-3.3271484 2.894043-1.2290039 6.0864258-1.1323242 6.2285156l.3842773.5678711-.4155273.5463867c-1.168457 1.5385742-3.9658203 6.1513672-2.8857422 8.9863281.1274414.3349609.2382813.4628906.28125.5039063.621582-.1005859 2.1801758-2.2148438 3.2475586-4.4179688l.0942383-.1943359.1689453-.1357422c.9985352-.7988281 1.7451172-5.9316406 1.8935547-10.3935547z" fill="#330e03"/><path d="m4.7392578 16.4462891s2.2319336-4.5869141 6.9506836-5.2963867c9.0551758-1.3632813 12.0961914 4.0600586 16.6010742 16.4663086l2.4013672.7431641s3.3144531-12.0102539 12.6601563-10.1010742l-.2568359 1.394043s6.5664063-7.8061523 12.7441406-6.9697266l-.1298828 1.394043 4.6337891.418457s-2.0576172 3.2060547-3.0878906 4.5996094c0 0 4.890625 1.5332031 3.9892578 7.2485352l-3.9892578-.8364258.9013672 2.2299805-2.8330078.1396484s2.4453125 7.527832-.2568359 12.1274414l-1.9316406-4.0429688s1.5458984 4.1826172-1.1591797 8.2255859l-1.4150391-5.7167969s1.1582031 5.1591797-2.9599609 9.7597656l-1.2871094-4.7412109s.2568359 5.4375-2.1884766 8.6435547l-6.4345703-2.6484375-.1298828 1.8115234-5.1479492-2.6484375.2568359 2.0908203s-28.2749023 1.6416016-22.2680664-22.4423828c0 0-1.1044922-4.6396484.0532227-6.8696289l-5.4594727-2.8886719z" fill="#fff"/><path d="m9.4267578 20.3647461-3.5053711-4.387207s-4.4482422 3.0522461-2.965332 7.0571289z" fill="#f5b32c"/><path d="m2.4042969 24.2963867-.3442383-.9296875c-1.7216797-4.6503906 3.1137695-8.0351563 3.3208008-8.1772461l.7329102-.5024414 4.8540039 6.0761719zm3.3691406-6.9731445c-.8994141.8120117-2.3334961 2.4335938-2.1469727 4.4013672l4.2587891-1.7578125z" fill="#330e03"/><path d="m16.7841797 17.5698242c-.9633789 0-1.7182617-.9833984-1.7182617-2.2392578s.7548828-2.2392578 1.7182617-2.2392578c.9638672 0 1.71875.9833984 1.71875 2.2392578s-.7548828 2.2392578-1.71875 2.2392578zm0-3.5229492c-.3603516 0-.7626953.5273438-.7626953 1.2836914 0 .7568359.4023438 1.2836914.7626953 1.2836914.3608398 0 .7631836-.5268555.7631836-1.2836914 0-.7563476-.4023438-1.2836914-.7631836-1.2836914z" fill="#330e03"/><path d="m16.167778 18.799147h2.86708v1.785983h-2.86708z" fill="#ff6c6c" transform="matrix(.5543464 .8322861 -.8322861 .5543464 24.233582 -5.873461)"/><path d="m18.226008 18.76494h2.866832v2.597072h-2.866832z" fill="#ff6c6c" transform="matrix(.3811781 .9245017 -.9245017 .3811781 30.714401 -5.759451)"/><g fill="#cccbca"><path d="m30.2211914 49.7880859c-5.675293 0-14.5151367-1.9775391-18.0664063-7.8066406-3.34375-5.4912109-1.5097656-12.0571289-.9956055-13.6220703-1.4116211-4.2646484-.5844727-7.7519531-.5131836-7.8945313l1.671875 1.034668-.0795898 1.5131836c-.0141602.0292969-.9985352 1.6342773.3188477 5.2558594l-.159668 1.6723633c-.0258789.0683594-2.3764648 6.9233398.8759766 12.2631836 3.2485352 5.3330078 12.8232422 5.3134766 18.2358398 4.9375l.1616211 2.6005859c-.453125.0302734-.9384765.0458984-1.449707.0458984z"/><path d="m37.3212891 51.6806641-1.9824219-2.6445313v-1.3613281l2.3007812.8203125z"/><path d="m43.6640625 51.1875-1.3251953.015625c-.234375.0732422-6.8535156-.8652344.0791016-2.7871094 1.4335938-.3974609 2.0703125-2.8671875 1.9111328-8.2822266l.796875-4.8574219c2.2294922 15.8466798-.8984375 15.7373048-1.4619141 15.9111329z"/><path d="m49.3486328 44.6464844-2.1533203 3.609375 1.2753906-6.3691406 2.3886719-3.1064454z"/><path d="m51.2480469 39.8154297.4072265-2.3095703 1.8320313-1.5917969-.4775391 7.2460938z"/><path d="m54.4423828 32.6484375c-.3173828-1.40625-1.6044922-5.5385742-1.6044922-5.5385742l2.8789063-.1157227-.0791016 12.9003906c0 .0000001-.7890625-5.4550781-1.1953125-7.2460937z"/><path d="m55.6376953 28.0297852-.9570312-3.4335938 1.8701172-.3974609 1.15625 3.4331054z"/></g><path d="m44.4404297 53.2949219-5.890625-2.4248047-.1386719 1.9365234-4.8291016-2.484375.1601563 1.3095703-1.0161133.0595703s-.4267578.0253906-1.168457.0253906c-3.2827148 0-14.4179688-.5419922-19.8608398-7.5087891-3.1079102-3.9785156-3.8735352-9.3339844-2.2763672-15.921875-.206543-.9477538-.8081055-4.1259764-.1591797-6.4111327l-.4331055-.2290039-6.4238281 2.6503906-.3442383-.9296875c-.8325195-2.2480469-.215332-4.6323242 1.7363281-6.7563477l-.0405273-.3276367.1240234-.2543945c.1000977-.2055664 2.5117188-5.0478516 7.6679688-5.8237305.9511719-.1430664 1.8569336-.2158203 2.6918945-.2158203 7.9482422 0 11.0649414 6.65625 14.7871094 16.8549805l1.0463867.3237305c.9501953-2.6757813 4.2167969-10.0708008 11.3125-10.0708008.7001953 0 1.4277344.0756836 2.1582031.2250977l.3691406.0756836c2.2265625-2.1762695 6.5449219-5.7329102 10.9824219-5.7329102.3623047 0 .7226563.0234375 1.0722656.0712891l.9091797.1225586-.1259766 1.3525391 5.2480469.4741211-.8515625 1.3261719c-.0683594.1069336-1.3896484 2.1630859-2.4404297 3.6884766 1.9101563 1.0859375 4.1513672 3.5498047 3.4814453 7.7924805l-.15625.9926758-3.2197265-.6748049.734375 1.8144531-2.9824219.1474609c.59375 2.4018555 1.5732422 7.8930664-.6728516 11.7163086l-.9111328 1.5498047-.6103516-1.2763672c-.2216797 1.2431641-.6953125 2.6044922-1.5996094 3.9570313l-1.2021484 1.7958984-.5556641-2.2460938c-.4912109 1.46875-1.3222656 3.0605469-2.6992188 4.5976563l-1.1728516 1.3115234-.4179688-1.5390625c-.3505859 1.40625-.9189453 2.8710938-1.8369141 4.0722656zm-7.6074219-5.1982422 6.9394531 2.8564453c1.7753906-2.9433594 1.5908203-7.3720703 1.5878906-7.4199219l-.4121094-8.7255859 3.0693359 11.3076172c2.3828125-3.6933594 1.6484375-7.2695313 1.6113281-7.4394531l1.8603516-.4355469.7734375 3.125c.8144531-2.7333984-.0126953-5.0439453-.0234375-5.0722656l1.7587891-.7431641 1.0078125 2.1083984c1.109375-4.1308594-.5712891-9.425293-.5908203-9.4868164l-.3847656-1.1870117 2.7373047-.1357422-1.0693359-2.6450195 4.6982422.9853516c.1152344-4.0219727-3.2714844-5.1333008-3.4267578-5.1821289l-1.2802734-.4013672.7978516-1.0786133c.5810547-.7861328 1.5097656-2.1835938 2.1914063-3.2226563l-4.0087891-.3618164.1269531-1.3662109c-5.3476563.0795898-10.9130859 6.625-10.96875 6.6914063l-2.3261719 2.7646484.7324219-3.9799805c-.2871094-.0292969-.5703125-.0439453-.8486328-.0439453-7.0410156 0-9.7460938 9.5087891-9.7724609 9.6049805l-.262207.9501953-3.7963867-1.1743164-.1616211-.4467773c-4.1079102-11.3129883-6.84375-16.0424805-13.1533203-16.0424805-.7402344 0-1.550293.065918-2.4072266.1948242-3.5922852.5400391-5.6044922 3.6538086-6.1079102 4.5366211l.0810547.6586914-.3295898.3295898c-.980957.9804688-2.0053711 2.4287109-1.8491211 4.1044922l5.3017578-2.1875 2.8115234 1.487793-.4365234.8417969c-.8129883 1.5654297-.2553711 5.0117188.0283203 6.2080078l.0532227.2255859-.0556641.2265625c-1.519043 6.0898438-.8886719 10.9697266 1.8730469 14.5048828 4.9106445 6.2861328 15.2910156 6.7744141 18.3549805 6.7744141h.0356445l-.3486328-2.8349609 5.4663086 2.8125z" fill="#330e03"/></svg>