<?xml version="1.0" encoding="iso-8859-1"?>
<!-- Uploaded to: SVG Repo, www.svgrepo.com, Generator: SVG Repo Mixer Tools -->
<svg fill="#000000" height="800px" width="800px" version="1.1" id="Layer_1" xmlns="http://www.w3.org/2000/svg" xmlns:xlink="http://www.w3.org/1999/xlink" 
	 viewBox="0 0 512.002 512.002" xml:space="preserve">
<g>
	<g>
		<path d="M326.322,193.276l-1.177-4.49c-1.261-4.808-6.186-7.685-10.992-6.422c-4.809,1.261-7.684,6.182-6.424,10.992l1.177,4.488
			c8.496,32.419,3.859,66.207-13.057,95.139s-44.085,49.544-76.505,58.04c-8.625,2.26-17.347,3.581-26.048,3.999
			c20.266-9.619,44.239-24.978,59.647-48.089c2.758-4.136,1.64-9.725-2.496-12.482c-4.135-2.758-9.725-1.641-12.482,2.496
			c-23.65,35.475-73.412,50.708-84.07,53.627c-10.268-2.876-20.238-7.081-29.687-12.606c-10.64-6.221-20.132-13.848-28.333-22.594
			c3.784,0.146,7.963,0.242,12.48,0.242c22.559,0,53.196-2.356,81.318-12.401c4.682-1.672,7.122-6.823,5.45-11.504
			c-1.673-4.682-6.827-7.123-11.505-5.45c-40.459,14.449-88.437,11.398-102.416,10.094c-4.766-7.618-8.726-15.78-11.792-24.386
			c10.564,2.416,21.281,4.2,32.015,5.324c4.947,0.513,9.374-3.071,9.89-8.015c0.518-4.945-3.071-9.372-8.015-9.89
			c-14.973-1.569-29.909-4.51-44.394-8.747c-3.063-0.895-6.371-0.103-8.693,2.082c-2.325,2.186-3.319,5.438-2.613,8.549
			c0.418,1.836,0.783,3.349,1.152,4.753c9.716,37.071,33.284,68.14,66.368,87.482c22.268,13.02,47.046,19.679,72.176,19.678
			c12.205,0,24.495-1.571,36.614-4.748c37.071-9.715,68.14-33.284,87.484-66.368C330.735,268.985,336.038,230.35,326.322,193.276z"
			/>
	</g>
</g>
<g>
	<g>
		<path d="M261.324,234.282c-2.352-4.378-7.809-6.025-12.189-3.671c-17.504,9.401-36.219,16.747-55.625,21.833
			c-20.125,5.274-40.776,8.063-61.38,8.29c-4.972,0.054-8.957,4.129-8.903,9.1c0.055,4.938,4.075,8.902,8.999,8.902
			c0.035,0,0.068,0,0.101,0c22.078-0.242,44.197-3.229,65.747-8.877c20.779-5.447,40.825-13.315,59.58-23.387
			C262.032,244.119,263.677,238.662,261.324,234.282z"/>
	</g>
</g>
<g>
	<g>
		<path d="M511.038,121.698c-6.038-22.948-29.876-32.283-42.314-35.652c-0.514-0.784-1.167-1.486-1.926-2.09
			c1.744-3.237,3.088-6.326,4.038-9.37c4.657-14.779,5.546-29.913,2.502-42.611c-3.434-14.332-11.427-24.146-22.502-27.631
			c-9.398-2.969-19.745-0.832-29.358,5.856C414.942,3.562,407.159,0,398.901,0c-8.247,0-16.028,3.561-22.566,10.199
			c-9.609-6.691-19.952-8.83-29.345-5.858c-17.096,5.382-26.656,26.484-23.788,52.509c0.545,4.941,4.973,8.506,9.933,7.962
			c4.941-0.545,8.506-4.992,7.962-9.933c-1.839-16.694,2.913-30.727,11.312-33.371c5.235-1.656,12.276,1.279,18.821,7.86
			c1.924,1.934,4.611,2.896,7.333,2.603c2.714-0.288,5.149-1.792,6.623-4.087c2.37-3.691,7.303-9.881,13.717-9.881
			c6.426,0,11.35,6.186,13.714,9.874c1.473,2.297,3.907,3.803,6.62,4.094c2.703,0.289,5.411-0.665,7.337-2.598
			c6.652-6.679,13.52-9.543,18.848-7.86c4.741,1.493,8.535,6.835,10.409,14.658c1.984,8.274,1.618,18.547-0.961,28.754
			c-20.833-24.81-56.801-32.946-86.833-17.568c-6.806,3.485-13.81,7.612-18.925,14.141c-18.987,24.238-63.265,60.676-125.552,83.601
			c-45.12,16.605-113.197,30.708-185.803,6.692c7.178-12.798,21.049-35.993,34.087-49.03c3.515-3.515,3.515-9.215,0-12.729
			c-3.517-3.515-9.215-3.515-12.731,0c-12.319,12.319-24.751,31.748-32.928,45.711c-3.687-10.953-7.513-25.626-7.513-39.347
			c0-4.971-4.029-9.002-9.002-9.002c-4.973,0-9.002,4.03-9.002,9.002c0,25.064,10.369,51.405,14.429,60.76
			c-19.475,54.7-16.967,113.752,7.187,166.714c24.675,54.101,68.955,95.327,124.684,116.083
			c22.331,8.318,45.749,12.989,69.273,13.934l13.291,40.106h-4.879c-4.972,0-9.002,4.03-9.002,9.002
			c0,4.971,4.029,9.002,9.002,9.002h17.281c0.023,0,0.044,0.005,0.066,0.005h32.874c4.973,0,9.002-4.03,9.002-9.002
			c0-4.971-4.029-9.002-9.002-9.002h-26.374l-13.309-40.159c8.49-0.385,16.963-1.252,25.365-2.624
			c36.794-6.002,71.76-21.331,101.115-44.331c3.914-3.067,4.6-8.724,1.535-12.637c-3.068-3.914-8.726-4.6-12.637-1.534
			c-56.261,44.079-130.024,55.431-197.317,30.368C102.036,404.006,61.342,366.12,38.665,316.4
			c-21.445-47.022-24.334-99.272-8.368-148.091c29.744,10.079,59.432,14.398,88.265,14.395
			c110.703-0.006,208.409-63.749,244.723-110.102c2.969-3.79,7.983-6.671,12.958-9.219c26.055-13.343,58.108-2.998,71.451,23.057
			c6.347,12.395,7.346,26.472,2.817,39.638c-4.53,13.168-13.979,23.65-26.609,29.516l-17.725,8.232
			c-2.433,1.131-4.236,3.286-4.916,5.882c-0.679,2.595-0.168,5.358,1.398,7.536c23.147,32.196,29.612,71.618,18.201,111.004
			c-1.449,5.003-3.115,10.027-4.948,14.93c-9.808,26.231-24.442,49.68-43.497,69.697c-3.428,3.601-3.287,9.299,0.313,12.727
			c3.599,3.428,9.298,3.287,12.726-0.313c20.739-21.784,36.659-47.289,47.322-75.804c1.992-5.328,3.802-10.786,5.378-16.226
			c11.939-41.217,6.624-82.539-14.883-117.523l8.214-3.814c11.526-5.353,21.085-13.554,27.981-23.783
			c2.889,0.358,5.663,0.545,8.292,0.545c28.06-0.002,41.345-18.657,41.978-19.57C511.231,126.95,511.706,124.242,511.038,121.698z
			 M467.945,130.633c2.635-8.164,3.712-16.563,3.255-24.871c7.612,2.924,16.593,7.955,20.783,16.205
			C488.073,125.451,480.248,130.528,467.945,130.633z"/>
	</g>
</g>
<g>
	<g>
		<circle cx="403.081" cy="96.197" r="9.002"/>
	</g>
</g>
</svg>