<?xml version="1.0" encoding="utf-8"?>

<!-- Uploaded to: SVG Repo, www.svgrepo.com, Generator: SVG Repo Mixer Tools -->
<svg fill="#000000" height="800px" width="800px" version="1.1" id="Icons" xmlns="http://www.w3.org/2000/svg" xmlns:xlink="http://www.w3.org/1999/xlink" 
	 viewBox="0 0 32 32" xml:space="preserve">
<path d="M26,5V3c0-0.6-0.4-1-1-1h-4c-0.6,0-1,0.4-1,1v2H26z"/>
<path d="M12.2,22.1c1.7-1.6,2.3-4.1,1.4-6.3l-1.2-3.1c-0.1-0.4-0.5-0.6-0.9-0.6H5.5c-0.4,0-0.8,0.3-0.9,0.6l-1.2,3.1
	c-0.8,2.2-0.3,4.7,1.4,6.3c0.8,0.7,1.7,1.2,2.7,1.3v2.3c0,1.1-0.7,2.1-1.8,2.3c-0.5,0.1-0.8,0.6-0.8,1.1C5,29.6,5.4,30,5.9,30h5.1
	c0,0,0,0,0,0c0,0,0,0,0,0c0.1,0,0.2,0,0.4-0.1c0,0,0.1,0,0.1-0.1c0.1,0,0.1-0.1,0.2-0.1c0,0,0.1-0.1,0.1-0.1c0-0.1,0.1-0.1,0.1-0.2
	c0,0,0-0.1,0.1-0.1c0,0,0-0.1,0-0.1c0,0,0-0.1,0-0.1c0,0,0-0.1,0-0.1c0,0,0,0,0-0.1c0-0.1,0-0.1,0-0.2c0-0.1,0-0.1-0.1-0.2
	c0-0.1-0.1-0.1-0.1-0.2c0-0.1-0.1-0.1-0.1-0.1c0,0-0.1-0.1-0.2-0.1c-0.1,0-0.1-0.1-0.2-0.1c0,0,0,0-0.1,0c-1.1-0.3-1.8-1.2-1.8-2.3
	v-2.3C10.5,23.2,11.4,22.8,12.2,22.1z"/>
<path d="M26,9.8V7h-6v2.8c-1.8,1.1-3,3-3,5.2v1h7c0.6,0,1,0.4,1,1v7c0,0.6-0.4,1-1,1h-7v4c0,0.6,0.4,1,1,1h10c0.6,0,1-0.4,1-1V15
	C29,12.8,27.8,10.9,26,9.8z"/>
</svg>